# xmcd
#
# Track frame offsets: 
#        150
#        15504
#        41557
#        62763
#        82662
#        112195
#        141247
#        157185
#        189363
#        218274
#        252711
#        274401
#        293470
#
# Disc length: 4178 seconds
#
# Revision: 5
# Processed by: cddbd v1.5.2PL0 Copyright (c) Steve Scherf et al.
# Submitted via: ExactAudioCopy v0.99pb5
#
DISCID=b710500d
DTITLE=Ismael Serrano - Principio de incertidumbre CD2
DYEAR=2003
DGENRE=Latin
TTITLE0=Qué andarás haciendo
TTITLE1=Recuerdo
TTITLE2=Ya ves -Luis Edo Aute-
TTITLE3=Papá cuéntame otra vez
TTITLE4=Ahora
TTITLE5=Zona cero
TTITLE6=Déjate convencer
TTITLE7=Vértigo
TTITLE8=Tierna y dulce historia de amor
TTITLE9=Un muerto encierras
TTITLE10=Prende la luz
TTITLE11=No estarás sola
TTITLE12=A las madres de mayo
EXTD=per ReiSombra
EXTT0=per ReiSombra
EXTT1=per ReiSombra
EXTT2=per ReiSombra
EXTT3=per ReiSombra
EXTT4=per ReiSombra
EXTT5=per ReiSombra
EXTT6=per ReiSombra
EXTT7=per ReiSombra
EXTT8=per ReiSombra
EXTT9=per ReiSombra
EXTT10=per ReiSombra
EXTT11=per ReiSombra
EXTT12=per ReiSombra
PLAYORDER=
